<svg width="150" height="150" viewBox="0 0 150 150" fill="none" xmlns="http://www.w3.org/2000/svg">
<g id="ar_on_you">
<mask id="mask0_402_951" style="mask-type:alpha" maskUnits="userSpaceOnUse" x="0" y="0" width="150" height="150">
<rect id="Bounding box" width="150" height="150" fill="#D9D9D9"/>
</mask>
<g mask="url(#mask0_402_951)">
<path id="ar_on_you_2" d="M75 25C88.9583 25 100.781 29.8438 110.469 39.5313C120.156 49.2188 125 61.0417 125 75C125 88.9584 120.156 100.781 110.469 110.469C100.781 120.156 88.9583 125 75 125C61.0417 125 49.2188 120.156 39.5312 110.469C29.8438 100.781 25 88.9584 25 75C25 61.0417 29.8438 49.2188 39.5312 39.5313C49.2188 29.8438 61.0417 25 75 25ZM75 112.5C85.4167 112.5 94.2708 108.854 101.562 101.563C108.854 94.2709 112.5 85.4167 112.5 75C112.5 64.5834 108.854 55.7292 101.562 48.4375C94.2708 41.1459 85.4167 37.5 75 37.5C64.5833 37.5 55.7292 41.1459 48.4375 48.4375C41.1458 55.7292 37.5 64.5834 37.5 75C37.5 85.4167 41.1458 94.2709 48.4375 101.563C55.7292 108.854 64.5833 112.5 75 112.5ZM75 96.875C80 96.875 84.4792 95.4427 88.4375 92.5782C92.3958 89.7136 95.2083 85.9375 96.875 81.25H53.125C54.7917 85.9375 57.6042 89.7136 61.5625 92.5782C65.5208 95.4427 70 96.875 75 96.875ZM53.125 62.5C53.125 64.2709 53.724 65.7552 54.9219 66.9532C56.1198 68.1511 57.6042 68.75 59.375 68.75C61.1458 68.75 62.6302 68.1511 63.8281 66.9532C65.026 65.7552 65.625 64.2709 65.625 62.5C65.625 60.7292 65.026 59.2448 63.8281 58.0469C62.6302 56.849 61.1458 56.25 59.375 56.25C57.6042 56.25 56.1198 56.849 54.9219 58.0469C53.724 59.2448 53.125 60.7292 53.125 62.5ZM84.375 62.5C84.375 64.2709 84.974 65.7552 86.1719 66.9532C87.3698 68.1511 88.8542 68.75 90.625 68.75C92.3958 68.75 93.8802 68.1511 95.0781 66.9532C96.276 65.7552 96.875 64.2709 96.875 62.5C96.875 60.7292 96.276 59.2448 95.0781 58.0469C93.8802 56.849 92.3958 56.25 90.625 56.25C88.8542 56.25 87.3698 56.849 86.1719 58.0469C84.974 59.2448 84.375 60.7292 84.375 62.5ZM6.25 37.5V25C6.25 19.7917 8.07292 15.3646 11.7188 11.7188C15.3646 8.07295 19.7917 6.25003 25 6.25003H37.5V18.75H25C23.2292 18.75 21.7448 19.349 20.5469 20.5469C19.349 21.7448 18.75 23.2292 18.75 25V37.5H6.25ZM25 143.75C19.7917 143.75 15.3646 141.927 11.7188 138.281C8.07292 134.635 6.25 130.208 6.25 125V112.5H18.75V125C18.75 126.771 19.349 128.255 20.5469 129.453C21.7448 130.651 23.2292 131.25 25 131.25H37.5V143.75H25ZM112.5 143.75V131.25H125C126.771 131.25 128.255 130.651 129.453 129.453C130.651 128.255 131.25 126.771 131.25 125V112.5H143.75V125C143.75 130.208 141.927 134.635 138.281 138.281C134.635 141.927 130.208 143.75 125 143.75H112.5ZM131.25 37.5V25C131.25 23.2292 130.651 21.7448 129.453 20.5469C128.255 19.349 126.771 18.75 125 18.75H112.5V6.25003H125C130.208 6.25003 134.635 8.07295 138.281 11.7188C141.927 15.3646 143.75 19.7917 143.75 25V37.5H131.25Z" fill="white"/>
</g>
</g>
</svg>
