<svg width="50" height="50" viewBox="0 0 50 50" fill="none" xmlns="http://www.w3.org/2000/svg">
<g id="fingerprint">
<mask id="mask0_402_965" style="mask-type:alpha" maskUnits="userSpaceOnUse" x="0" y="0" width="50" height="50">
<rect id="Bounding box" width="50" height="50" fill="#D9D9D9"/>
</mask>
<g mask="url(#mask0_402_965)">
<path id="fingerprint_2" d="M6.77035 20.1041C6.52729 19.9305 6.37972 19.7135 6.32764 19.4531C6.27555 19.1927 6.35368 18.9236 6.56201 18.6458C8.71479 15.6944 11.4144 13.4027 14.661 11.7708C17.9075 10.1389 21.371 9.32289 25.0516 9.32289C28.7321 9.32289 32.2044 10.1128 35.4683 11.6927C38.7322 13.2725 41.4578 15.5555 43.6453 18.5416C43.8537 18.8541 43.9231 19.1319 43.8537 19.375C43.7842 19.618 43.6453 19.8264 43.437 20C43.2287 20.1736 42.9856 20.2517 42.7078 20.2343C42.4301 20.217 42.187 20.0694 41.9787 19.7916C40.069 17.0833 37.6124 15.0086 34.6089 13.5677C31.6054 12.1267 28.4196 11.4062 25.0516 11.4062C21.6835 11.4062 18.5238 12.1267 15.5724 13.5677C12.621 15.0086 10.1731 17.0833 8.22868 19.7916C8.02034 20.1041 7.77729 20.2777 7.49951 20.3125C7.22173 20.3472 6.97868 20.2777 6.77035 20.1041ZM30.937 45.7812C27.3259 44.8784 24.3745 43.0816 22.0828 40.3906C19.7912 37.6996 18.6453 34.4097 18.6453 30.5208C18.6453 28.7847 19.2703 27.3264 20.5203 26.1458C21.7703 24.9652 23.2808 24.375 25.0516 24.375C26.8224 24.375 28.3328 24.9652 29.5828 26.1458C30.8328 27.3264 31.4578 28.7847 31.4578 30.5208C31.4578 31.6666 31.8919 32.6302 32.7599 33.4114C33.628 34.1927 34.6523 34.5833 35.8328 34.5833C37.0134 34.5833 38.0203 34.1927 38.8537 33.4114C39.687 32.6302 40.1037 31.6666 40.1037 30.5208C40.1037 26.493 38.628 23.1076 35.6766 20.3646C32.7252 17.6215 29.2009 16.25 25.1037 16.25C21.0065 16.25 17.4822 17.6215 14.5308 20.3646C11.5794 23.1076 10.1037 26.4757 10.1037 30.4687C10.1037 31.3021 10.1818 32.3437 10.3381 33.5937C10.4943 34.8437 10.8676 36.3021 11.4578 37.9687C11.562 38.2812 11.5533 38.559 11.4318 38.8021C11.3103 39.0451 11.1106 39.2187 10.8328 39.3229C10.5551 39.4271 10.286 39.4184 10.0256 39.2968C9.76514 39.1753 9.58284 38.9757 9.47868 38.6979C8.95784 37.3437 8.58458 35.9982 8.35889 34.6614C8.13319 33.3246 8.02034 31.9444 8.02034 30.5208C8.02034 25.9027 9.69569 22.0312 13.0464 18.9062C16.3971 15.7812 20.3988 14.2187 25.0516 14.2187C29.7391 14.2187 33.7669 15.7812 37.1349 18.9062C40.503 22.0312 42.187 25.9027 42.187 30.5208C42.187 32.2569 41.5707 33.7066 40.3381 34.8698C39.1054 36.033 37.6037 36.6146 35.8328 36.6146C34.062 36.6146 32.5429 36.033 31.2756 34.8698C30.0082 33.7066 29.3745 32.2569 29.3745 30.5208C29.3745 29.375 28.9492 28.4114 28.0985 27.6302C27.2478 26.8489 26.2321 26.4583 25.0516 26.4583C23.871 26.4583 22.8554 26.8489 22.0047 27.6302C21.154 28.4114 20.7287 29.375 20.7287 30.5208C20.7287 33.8889 21.7269 36.7014 23.7235 38.9583C25.72 41.2152 28.2981 42.7951 31.4578 43.6979C31.7703 43.8021 31.9787 43.9757 32.0828 44.2187C32.187 44.4618 32.2044 44.7222 32.1349 45C32.0655 45.243 31.9266 45.4514 31.7183 45.625C31.5099 45.7986 31.2495 45.8507 30.937 45.7812ZM13.5412 9.21872C13.2634 9.39233 12.9856 9.43573 12.7078 9.34893C12.4301 9.26212 12.2217 9.07983 12.0828 8.80205C11.944 8.52427 11.9092 8.27254 11.9787 8.04684C12.0481 7.82115 12.2217 7.6215 12.4995 7.44789C14.444 6.40622 16.4752 5.60761 18.5933 5.05205C20.7113 4.4965 22.8641 4.21872 25.0516 4.21872C27.2738 4.21872 29.444 4.48782 31.562 5.02601C33.6801 5.56421 35.7287 6.33677 37.7078 7.34372C38.0203 7.51733 38.2026 7.72566 38.2547 7.96872C38.3068 8.21178 38.2808 8.45483 38.1766 8.69789C38.0724 8.94094 37.8988 9.13191 37.6558 9.2708C37.4127 9.40969 37.1176 9.39233 36.7703 9.21872C34.9301 8.28122 33.029 7.56073 31.0672 7.05726C29.1054 6.55379 27.1002 6.30205 25.0516 6.30205C23.0377 6.30205 21.0585 6.53643 19.1141 7.00518C17.1697 7.47393 15.312 8.21178 13.5412 9.21872ZM19.687 45.0521C17.6384 42.8993 16.0672 40.7031 14.9735 38.4635C13.8797 36.2239 13.3328 33.5764 13.3328 30.5208C13.3328 27.3611 14.4787 24.6961 16.7703 22.526C19.062 20.3559 21.8224 19.2708 25.0516 19.2708C28.2808 19.2708 31.0585 20.3559 33.3849 22.526C35.7113 24.6961 36.8745 27.3611 36.8745 30.5208C36.8745 30.8333 36.779 31.085 36.5881 31.276C36.3971 31.467 36.1453 31.5625 35.8328 31.5625C35.5551 31.5625 35.312 31.467 35.1037 31.276C34.8953 31.085 34.7912 30.8333 34.7912 30.5208C34.7912 27.9166 33.8276 25.7378 31.9006 23.9843C29.9735 22.2309 27.6905 21.3541 25.0516 21.3541C22.4127 21.3541 20.1471 22.2309 18.2547 23.9843C16.3624 25.7378 15.4162 27.9166 15.4162 30.5208C15.4162 33.3333 15.9023 35.7205 16.8745 37.6823C17.8467 39.6441 19.2703 41.6146 21.1453 43.5937C21.3537 43.8021 21.4578 44.0451 21.4578 44.3229C21.4578 44.6007 21.3537 44.8437 21.1453 45.0521C20.937 45.2604 20.694 45.3646 20.4162 45.3646C20.1384 45.3646 19.8953 45.2604 19.687 45.0521ZM35.4162 41.5104C32.3259 41.5104 29.6436 40.4687 27.3693 38.3854C25.095 36.3021 23.9578 33.6805 23.9578 30.5208C23.9578 30.243 24.0533 30 24.2443 29.7916C24.4353 29.5833 24.687 29.4791 24.9995 29.4791C25.312 29.4791 25.5637 29.5833 25.7547 29.7916C25.9457 30 26.0412 30.243 26.0412 30.5208C26.0412 33.125 26.9787 35.2604 28.8537 36.9271C30.7287 38.5937 32.9162 39.4271 35.4162 39.4271C35.6245 39.4271 35.9196 39.4097 36.3016 39.375C36.6835 39.3402 37.0828 39.2882 37.4995 39.2187C37.812 39.1493 38.0811 39.1927 38.3068 39.3489C38.5325 39.5052 38.6801 39.7396 38.7495 40.0521C38.819 40.3298 38.7669 40.5729 38.5933 40.7812C38.4197 40.9896 38.194 41.1284 37.9162 41.1979C37.2912 41.3715 36.7443 41.467 36.2756 41.4843C35.8068 41.5017 35.5203 41.5104 35.4162 41.5104Z" fill="#4A90E2"/>
</g>
</g>
</svg>
